<?xml version="1.0" encoding="iso-8859-1"?>
<!-- Generator: Adobe Illustrator 19.0.0, SVG Export Plug-In . SVG Version: 6.00 Build 0)  -->
<svg version="1.1" id="Capa_1" xmlns="http://www.w3.org/2000/svg" xmlns:xlink="http://www.w3.org/1999/xlink" x="0px" y="0px"
	 viewBox="0 0 512 512" style="enable-background:new 0 0 512 512;" xml:space="preserve">
<path style="fill:#EFEDEE;" d="M322.995,18.785H121.889l-36.571,87.764L7.491,133.183v316.488c0,24.053,19.492,43.545,43.545,43.545
	h271.96c24.053,0,43.545-19.492,43.545-43.545V62.329C366.54,38.276,347.048,18.785,322.995,18.785z"/>
<g>
	<path style="fill:#D4D2D3;" d="M7.491,133.183h85.843c15.771,0,28.555-12.784,28.555-28.555V18.785L7.491,133.183z"/>
	<path style="fill:#D4D2D3;" d="M366.54,148.219c-19.464-8.86-40.767-13.533-62.791-13.533c-40.506,0-78.588,15.774-107.231,44.417
		c-59.127,59.127-59.127,155.333,0,214.461c28.642,28.642,66.723,44.417,107.23,44.417c22.025,0,43.329-4.674,62.791-13.534V148.219
		H366.54z"/>
</g>
<path style="fill:#465059;" d="M420.363,371.719c60.068,25.336,107.779,66.667,71.61,102.838s-77.502-11.54-102.838-71.609
	L420.363,371.719z"/>
<ellipse transform="matrix(-0.7071 -0.7071 0.7071 -0.7071 402.0576 911.2286)" style="fill:#BAB8B9;" cx="389.75" cy="372.345" rx="26.657" ry="36.416"/>
<circle style="fill:#DA5B65;" cx="303.751" cy="286.33" r="121.644"/>
<circle style="fill:#51D7F7;" cx="303.751" cy="286.33" r="84.173"/>
<path style="fill:#49C3E0;" d="M264.228,335.852c-32.872-32.872-32.872-86.169,0-119.041c3.825-3.825,7.936-7.186,12.25-10.121
	c-11.782,4.024-22.853,10.723-32.251,20.122c-32.872,32.872-32.872,86.169,0,119.041c29.047,29.047,74.033,32.408,106.791,10.121
	C321.588,366.025,287.702,359.326,264.228,335.852z"/>
<path d="M316.976,91.366c4.142,0,7.5-3.358,7.5-7.5s-3.358-7.5-7.5-7.5H169.154c-4.142,0-7.5,3.358-7.5,7.5s3.358,7.5,7.5,7.5
	H316.976z"/>
<path d="M316.976,451.493c4.142,0,7.5-3.357,7.5-7.5c0-4.142-3.358-7.5-7.5-7.5H209.342c-4.142,0-7.5,3.358-7.5,7.5
	c0,4.143,3.358,7.5,7.5,7.5H316.976z"/>
<path d="M238.933,351.155c17.315,17.315,40.336,26.851,64.824,26.851c24.487,0,47.509-9.536,64.823-26.851
	s26.851-40.336,26.851-64.823c0-24.487-9.536-47.509-26.851-64.824c-17.315-17.316-40.336-26.851-64.823-26.851
	c-24.488,0-47.509,9.535-64.824,26.851C203.189,257.252,203.189,315.411,238.933,351.155z M303.757,209.657
	c20.48,0,39.734,7.976,54.217,22.458c14.482,14.482,22.458,33.736,22.458,54.217c0,20.48-7.975,39.734-22.458,54.217
	c-14.482,14.483-33.736,22.458-54.217,22.458s-39.735-7.975-54.217-22.458c-29.895-29.896-29.895-78.539,0-108.434
	C264.021,217.633,283.276,209.657,303.757,209.657z"/>
<path d="M266.398,326.514c1.464,1.464,3.384,2.197,5.303,2.197s3.839-0.732,5.303-2.197c2.929-2.929,2.929-7.677,0-10.606
	l-6.057-6.057c-2.929-2.929-7.678-2.929-10.606,0c-2.929,2.929-2.929,7.677,0,10.606L266.398,326.514z"/>
<path d="M333.332,259.58c1.464,1.464,3.384,2.197,5.303,2.197s3.839-0.732,5.303-2.197c2.929-2.929,2.929-7.677,0-10.606
	l-6.057-6.057c-2.929-2.929-7.678-2.929-10.606,0c-2.929,2.929-2.929,7.677,0,10.606L333.332,259.58z"/>
<path d="M295.984,303.066c0.493,0.033,0.986,0.049,1.478,0.049c6.002,0,11.852-2.445,16.243-6.834
	c4.75-4.75,7.223-11.208,6.785-17.722c-0.278-4.133-3.857-7.255-7.986-6.98c-4.133,0.278-7.258,3.854-6.98,7.986
	c0.147,2.193-0.737,4.419-2.426,6.107c-1.689,1.689-3.913,2.572-6.108,2.426c-4.13-0.278-7.708,2.848-7.986,6.981
	C288.726,299.213,291.852,302.788,295.984,303.066z"/>
<path d="M480.727,397.6c-13.626-10.884-31.46-21.314-51.828-30.356c1.244-10.292-1.59-19.468-8.074-25.953
	c-0.044-0.044-0.093-0.084-0.138-0.128c22.38-47.849,13.846-106.694-25.61-146.151c-6.453-6.453-13.509-12.136-21.028-17.017V62.329
	c0-28.147-22.899-51.045-51.045-51.045H121.898c-1.953,0-3.923,0.816-5.303,2.196c0,0-114.365,114.365-114.409,114.411
	C0.813,129.318,0,131.194,0,133.183v257.84c0,4.142,3.358,7.5,7.5,7.5s7.5-3.358,7.5-7.5v-250.34h78.342
	c19.881,0,36.055-16.175,36.055-36.055V26.285h193.606c19.875,0,36.044,16.17,36.044,36.044v107.255
	c-15.791-7.502-32.852-11.653-50.37-12.294c-4.855-0.189-9.724-0.115-14.57,0.26c-4.131,0.308-7.23,3.905-6.922,8.035
	c0.303,4.073,3.974,7.229,8.037,6.924c5.323-0.4,10.686-0.419,16.013-0.067c17.223,1.129,33.888,6.131,48.784,14.57
	c0.03,0.017,0.06,0.035,0.089,0.051c8.827,5.012,17.032,11.227,24.361,18.557c36.72,36.72,43.138,92.439,19.263,135.807
	c-10.681,19.403-27.381,36.133-47.288,46.172c-0.1,0.05-0.199,0.1-0.299,0.15c-47.877,24.057-109.148,11.19-142.351-31.137
	c-0.055-0.07-0.108-0.141-0.166-0.208c-11.205-14.352-18.711-31.017-22.045-48.812c-0.033-0.24-0.077-0.476-0.132-0.71
	c-8.437-35.699,6.142-75.813,31.591-101.263c11.384-11.384,24.73-20.069,39.664-25.813c3.866-1.487,5.795-5.826,4.308-9.692
	c-1.467-3.817-5.881-5.782-9.699-4.314c-16.897,6.5-31.997,16.329-44.881,29.212c-0.287,0.287-0.565,0.581-0.849,0.87H56.538
	c-4.142,0-7.5,3.358-7.5,7.5c0,4.143,3.358,7.5,7.5,7.5h142.38c-8.305,11.489-14.605,24.172-18.703,37.616H56.538
	c-4.142,0-7.5,3.358-7.5,7.5c0,4.143,3.358,7.5,7.5,7.5h120.078c-0.033,0.185-0.071,0.368-0.103,0.552
	c-1.26,7.286-1.902,14.733-1.902,22.279c0,4.978,0.289,9.911,0.841,14.786H56.538c-4.142,0-7.5,3.358-7.5,7.5
	c0,4.143,3.358,7.5,7.5,7.5h121.515c3.126,13.303,8.346,25.975,15.496,37.616H56.538c-4.142,0-7.5,3.358-7.5,7.5
	c0,4.143,3.358,7.5,7.5,7.5h147.773c2.557,3.075,5.263,6.053,8.126,8.917c5.622,5.622,11.762,10.672,18.293,15.204
	c37.556,25.836,86.211,30.056,127.878,10.427c0.038,0.039,0.073,0.081,0.111,0.119c0.107,0.107,0.22,0.207,0.329,0.312v45.958
	c0,19.876-16.17,36.044-36.044,36.044H51.045c-19.875,0.001-36.044-16.169-36.044-36.043v-28.647c0-4.142-3.358-7.5-7.5-7.5
	s-7.5,3.358-7.5,7.5v28.647c0,28.147,22.899,51.045,51.045,51.045h271.96c28.146,0,51.045-22.899,51.045-51.045v-38.429
	c1.942,0.344,3.963,0.52,6.056,0.52c1.516,0,3.041-0.095,4.568-0.276c9.907,22.326,21.392,41.436,33.406,55.516
	c15.622,18.307,31.514,27.59,47.242,27.592c11.432,0,22.188-4.958,31.963-14.734c15.031-15.031,15.893-29.912,13.968-39.748
	C508.465,425.853,498.195,411.551,480.727,397.6z M114.398,36.891v67.735c0,11.609-9.445,21.055-21.055,21.055H25.607
	L114.398,36.891z M380.103,396.761c-1.753,0-3.914-0.222-6.054-1.002v-1.076c0.087-0.056,0.173-0.114,0.259-0.17
	c5.564-3.615,10.834-7.681,15.766-12.12c7.55-6.798,14.324-14.485,20.084-22.855c0.891-1.295,1.771-2.601,2.615-3.927
	c1.354,2.968,1.754,6.637,1.124,10.71c-1.155,7.46-5.296,14.292-10.579,19.573C397.226,391.982,388.935,396.752,380.103,396.761z
	 M486.677,469.253c-6.957,6.958-13.943,10.339-21.36,10.339c-20.945-0.003-45.971-27.568-66.174-72.47
	c0.637-0.311,1.271-0.637,1.9-0.977c5.395-2.917,10.26-6.763,14.429-11.256c3.588-3.868,6.646-8.246,8.977-12.982
	c0.031-0.062,0.065-0.124,0.095-0.186c40.796,18.404,68.128,41.543,71.987,61.269C498.338,452.225,495.113,460.816,486.677,469.253z
	"/>
<g>
</g>
<g>
</g>
<g>
</g>
<g>
</g>
<g>
</g>
<g>
</g>
<g>
</g>
<g>
</g>
<g>
</g>
<g>
</g>
<g>
</g>
<g>
</g>
<g>
</g>
<g>
</g>
<g>
</g>
</svg>
