<?xml version="1.0" encoding="UTF-8"?>
<svg xmlns="http://www.w3.org/2000/svg" viewBox="0 0 512 512" width="512" height="512"><g id="Out_line" data-name="Out line"><path d="M496,144a128,128,0,0,0-256,0c0,67.8916,53.13354,123.59814,120,127.74268V408a8.00917,8.00917,0,0,1-8,8H304a24,24,0,0,0,0,48h24a8,8,0,0,1,0,16H248a8.00917,8.00917,0,0,1-8-8V432a32.03635,32.03635,0,0,0,32-32V272a32.03635,32.03635,0,0,0-32-32H48a32.03635,32.03635,0,0,0-32,32V400a32.03635,32.03635,0,0,0,32,32h71.1087a36.74625,36.74625,0,0,1-15.51593,22.65625L101.57739,456H92a20,20,0,0,0,0,40H196a20,20,0,0,0,0-40h-9.57764l-2.01562-1.34375A36.74675,36.74675,0,0,1,168.8913,432H224v40a24.02718,24.02718,0,0,0,24,24h80a24,24,0,0,0,0-48H304a8,8,0,0,1,0-16h48a24.02718,24.02718,0,0,0,24-24V271.74268C442.86646,267.59814,496,211.8916,496,144ZM48,256H240a16.01833,16.01833,0,0,1,16,16V384H32V272A16.01833,16.01833,0,0,1,48,256ZM32,400H256a16.01833,16.01833,0,0,1-16,16H48A16.01833,16.01833,0,0,1,32,400Zm168,76a4.00427,4.00427,0,0,1-4,4H92a4,4,0,0,1,0-8H196A4.00427,4.00427,0,0,1,200,476Zm-37.19543-20H125.19531a52.64805,52.64805,0,0,0,10.17517-24h17.259A52.64981,52.64981,0,0,0,162.80457,456ZM480,144a111.61064,111.61064,0,0,1-31.20386,77.48218l-7.64331-7.64331,6.43653-19.3086a8.00092,8.00092,0,0,0-2.78956-8.93066l-24.6206-18.46484,9.47754-9.47754A8.00076,8.00076,0,0,0,432,152V120a8.00008,8.00008,0,0,0-8-8H404.5293L384.96436,79.3916l17.92211-41.82153A112.1946,112.1946,0,0,1,480,144ZM387.16089,33.64624,368.647,76.84863a7.99931,7.99931,0,0,0,.49317,7.26758l24,40A8.00072,8.00072,0,0,0,400,128h16v20.68652l-13.65674,13.65625a8.00031,8.00031,0,0,0,.85694,12.05762l27.38671,20.54-6.17627,18.5293a8.00083,8.00083,0,0,0,1.93262,8.1875l10.57092,10.5708a111.77624,111.77624,0,0,1-145.016-6.13574L300.94434,208H328a7.99967,7.99967,0,0,0,7.15527-4.42188l8-16a7.9997,7.9997,0,0,0-4.18408-11.00585L304,162.584V136a7.99979,7.99979,0,0,0-4.42236-7.15527l-9.79395-4.89746,3.12256-9.36817,32.12256,12.84863a8.00129,8.00129,0,0,0,10.39892-4.457l16-40a7.99988,7.99988,0,0,0-2.22119-9.04492L315.543,45.07031a111.9378,111.9378,0,0,1,71.61792-11.42407ZM301.39307,54.01538l33.05224,28.3313-10.90185,27.25391L290.97119,96.57227a7.999,7.999,0,0,0-10.56055,4.89746l-8,24a7.99961,7.99961,0,0,0,4.01172,9.68554L288,140.94434V168a7.99975,7.99975,0,0,0,5.02881,7.42773l31.92773,12.77149L323.05566,192H296a7.99967,7.99967,0,0,0-7.15527,4.42188l-8.56556,17.1311a111.8367,111.8367,0,0,1,21.1139-159.5376Z"/><path d="M144,376a56,56,0,1,0-56-56A56.06322,56.06322,0,0,0,144,376Zm0-96a40,40,0,1,1-40,40A40.04552,40.04552,0,0,1,144,280Z"/><path d="M124.05859,350.96191a8.00239,8.00239,0,0,0,8.05762-.10156l40-24a8.001,8.001,0,0,0,0-13.7207l-40-24A8.00029,8.00029,0,0,0,120,296v48A8.00044,8.00044,0,0,0,124.05859,350.96191ZM136,310.12988,152.45068,320,136,329.87012Z"/></g></svg>
