<svg height="512" viewBox="0 0 512 512" width="512" xmlns="http://www.w3.org/2000/svg"><g id="Flat"><rect fill="#396795" height="160" rx="24" width="224" x="24" y="280"/><path d="m80 272h112v176h-112z" fill="#eedc9a" transform="matrix(0 1 -1 0 496 224)"/><path d="m112 328v64l48-32z" fill="#e44b4d"/><path d="m24 440h224a0 0 0 0 1 0 0v24a24 24 0 0 1 -24 24h-176a24 24 0 0 1 -24-24v-24a0 0 0 0 1 0 0z" fill="#26507a"/><path d="m112 440h48a0 0 0 0 1 0 0v8a16 16 0 0 1 -16 16h-16a16 16 0 0 1 -16-16v-8a0 0 0 0 1 0 0z" fill="#2f4054"/><path d="m328 472h-96v-16h96a8 8 0 0 0 0-16h-32a24 24 0 0 1 0-48h56a8.00917 8.00917 0 0 0 8-8v-152h16v152a24.02718 24.02718 0 0 1 -24 24h-56a8 8 0 0 0 0 16h32a24 24 0 0 1 0 48z" fill="#395166"/><path d="m488 144a119.87414 119.87414 0 1 1 -89.66-116.12988 119.62642 119.62642 0 0 1 89.66 116.12988z" fill="#8acce7"/><g fill="#4ba477"><path d="m488 144a119.62642 119.62642 0 0 1 -39.25 88.75l-16.75-16.75 8-24-32-24 16-16v-32h-24l-24-40 22.34-52.12988a120.05677 120.05677 0 0 1 89.66 116.12988z"/><path d="m296 168 40 16-8 16h-32l-13.89 27.78a119.98553 119.98553 0 0 1 19.74-183.90988l42.15 36.12988-16 40-40-16-8 24 16 8z"/></g></g></svg>