<svg height="512" viewBox="0 0 128 128" width="512" xmlns="http://www.w3.org/2000/svg"><g id="number"><text fill="#24253a" font-family="MyriadPro-Regular, Myriad Pro" font-size="40" letter-spacing=".002em" transform="translate(55.973 -738.265)">7<tspan x="-10.3" y="228">17</tspan><tspan x="-10.3" y="456">27</tspan><tspan x="-10.3" y="684">37</tspan><tspan x="-10.3" y="912">47</tspan><tspan x="-10.3" y="1140">57</tspan><tspan x="-10.3" y="1368">67</tspan><tspan x="-10.3" y="1596">77</tspan><tspan x="-10.3" y="1824">87</tspan><tspan x="-10.3" y="2052">97</tspan><tspan x="-20.599" y="2280">107</tspan><tspan x="-20.599" y="2508">117</tspan><tspan x="-20.599" y="2736">127</tspan><tspan x="-20.599" y="2964">137</tspan><tspan x="-20.599" y="3192">147</tspan><tspan x="-20.599" y="3420">157</tspan><tspan x="-20.599" y="3648">167</tspan><tspan x="-20.599" y="3876">177</tspan><tspan x="-20.599" y="4104">187</tspan><tspan x="-20.599" y="4332">197</tspan><tspan x="-20.599" y="4560">207</tspan><tspan x="-20.599" y="4788">217</tspan><tspan x="-20.599" y="5016">227</tspan><tspan x="-20.599" y="5244">237</tspan><tspan x="-20.599" y="5472">247</tspan></text></g><g id="icon"><rect fill="#d9e2e9" height="97.958" rx="6.105" width="108.674" x="18.326" y="9.827"/><path d="m127 15.936v85.743a6.1 6.1 0 0 1 -6.1 6.1h-96.473a6.079 6.079 0 0 1 -6.084-5.921h99.692a2.856 2.856 0 0 0 2.864-2.864v-89.172a6.112 6.112 0 0 1 6.101 6.114z" fill="#c1cdd3"/><path d="m120.895 108.785h-96.463a7.113 7.113 0 0 1 -7.105-7.1v-85.753a7.113 7.113 0 0 1 7.105-7.1h96.463a7.113 7.113 0 0 1 7.105 7.1v85.748a7.113 7.113 0 0 1 -7.105 7.105zm-96.463-97.958a5.111 5.111 0 0 0 -5.105 5.1v85.753a5.111 5.111 0 0 0 5.105 5.1h96.463a5.111 5.111 0 0 0 5.105-5.1v-85.748a5.111 5.111 0 0 0 -5.105-5.1z" fill="#2f3a5a"/><path d="m62.765 19.53h53.352v18.969h-53.352z" fill="#5fc4f8"/><path d="m116.112 19.526v18.98h-5.134v-14.677h-48.214v-4.303z" fill="#3dbce9"/><path d="m116.117 39.5h-53.352a1 1 0 0 1 -1-1v-18.97a1 1 0 0 1 1-1h53.353a1 1 0 0 1 1 1v18.97a1 1 0 0 1 -1.001 1zm-52.353-2h51.353v-16.97h-51.352z" fill="#2f3a5a"/><path d="m64.669 49.535h10.279v10.279h-10.279z" fill="#9297ab"/><path d="m74.954 49.538v2.805h-7.241v7.464h-3.042v-10.269z" fill="#b0b3c1"/><path d="m74.948 60.814h-10.279a1 1 0 0 1 -1-1v-10.279a1 1 0 0 1 1-1h10.279a1 1 0 0 1 1 1v10.279a1 1 0 0 1 -1 1zm-9.279-2h8.279v-8.279h-8.279z" fill="#2f3a5a"/><path d="m84.299 49.535h10.279v10.279h-10.279z" fill="#9297ab"/><path d="m94.584 49.538v2.805h-7.242v7.464h-3.042v-10.269z" fill="#b0b3c1"/><path d="m94.578 60.814h-10.278a1 1 0 0 1 -1-1v-10.279a1 1 0 0 1 1-1h10.278a1 1 0 0 1 1 1v10.279a1 1 0 0 1 -1 1zm-9.279-2h8.279v-8.279h-8.278z" fill="#2f3a5a"/><path d="m103.928 49.535h10.279v10.279h-10.279z" fill="#9297ab"/><path d="m114.214 49.538v2.805h-7.242v7.464h-3.042v-10.269z" fill="#b0b3c1"/><path d="m114.208 60.814h-10.279a1 1 0 0 1 -1-1v-10.279a1 1 0 0 1 1-1h10.279a1 1 0 0 1 1 1v10.279a1 1 0 0 1 -1 1zm-9.279-2h8.279v-8.279h-8.279z" fill="#2f3a5a"/><path d="m64.669 67.62h10.279v10.279h-10.279z" fill="#9297ab"/><path d="m74.954 67.624v2.805h-7.241v7.464h-3.042v-10.269z" fill="#b0b3c1"/><path d="m74.948 78.9h-10.279a1 1 0 0 1 -1-1v-10.279a1 1 0 0 1 1-1h10.279a1 1 0 0 1 1 1v10.279a1 1 0 0 1 -1 1zm-9.279-2h8.279v-8.279h-8.279z" fill="#2f3a5a"/><path d="m84.299 67.62h10.279v10.279h-10.279z" fill="#9297ab"/><path d="m94.584 67.624v2.805h-7.242v7.464h-3.042v-10.269z" fill="#b0b3c1"/><path d="m94.578 78.9h-10.278a1 1 0 0 1 -1-1v-10.279a1 1 0 0 1 1-1h10.278a1 1 0 0 1 1 1v10.279a1 1 0 0 1 -1 1zm-9.279-2h8.279v-8.279h-8.278z" fill="#2f3a5a"/><path d="m103.928 67.62h10.279v10.279h-10.279z" fill="#9297ab"/><path d="m114.214 67.624v2.805h-7.242v7.464h-3.042v-10.269z" fill="#b0b3c1"/><path d="m114.208 78.9h-10.279a1 1 0 0 1 -1-1v-10.279a1 1 0 0 1 1-1h10.279a1 1 0 0 1 1 1v10.279a1 1 0 0 1 -1 1zm-9.279-2h8.279v-8.279h-8.279z" fill="#2f3a5a"/><path d="m64.669 85.706h10.279v10.279h-10.279z" fill="#9297ab"/><path d="m74.954 85.71v2.805h-7.241v7.464h-3.042v-10.269z" fill="#b0b3c1"/><path d="m74.948 96.986h-10.279a1 1 0 0 1 -1-1v-10.28a1 1 0 0 1 1-1h10.279a1 1 0 0 1 1 1v10.28a1 1 0 0 1 -1 1zm-9.279-2h8.279v-8.28h-8.279z" fill="#2f3a5a"/><path d="m84.299 85.706h10.279v10.279h-10.279z" fill="#9297ab"/><path d="m94.584 85.71v2.805h-7.242v7.464h-3.042v-10.269z" fill="#b0b3c1"/><path d="m94.578 96.986h-10.278a1 1 0 0 1 -1-1v-10.28a1 1 0 0 1 1-1h10.278a1 1 0 0 1 1 1v10.28a1 1 0 0 1 -1 1zm-9.279-2h8.279v-8.28h-8.278z" fill="#2f3a5a"/><path d="m103.928 85.706h10.279v10.279h-10.279z" fill="#9297ab"/><path d="m114.214 85.71v2.805h-7.242v7.464h-3.042v-10.269z" fill="#b0b3c1"/><path d="m114.208 96.986h-10.279a1 1 0 0 1 -1-1v-10.28a1 1 0 0 1 1-1h10.279a1 1 0 0 1 1 1v10.28a1 1 0 0 1 -1 1zm-9.279-2h8.279v-8.28h-8.279z" fill="#2f3a5a"/><path d="m52.64 89.567a471.433 471.433 0 0 1 -.019-61.528 8 8 0 0 0 -7.987-8.509h-8.975a8 8 0 0 0 -7.987 8.509 471.468 471.468 0 0 1 -.019 61.528 8 8 0 0 0 7.986 8.515h9.015a8 8 0 0 0 7.986-8.515z" fill="#d9e2e9"/><path d="m44.654 98.088h-9.008a8 8 0 0 1 -7.064-4.214 8.181 8.181 0 0 0 1.054.074h9.008a7.987 7.987 0 0 0 7.984-8.518 472.863 472.863 0 0 1 -.015-61.53 7.958 7.958 0 0 0 -.935-4.3 8.01 8.01 0 0 1 6.945 8.444 470.318 470.318 0 0 0 .015 61.525 7.987 7.987 0 0 1 -7.984 8.519z" fill="#c1cdd3"/><g fill="#2f3a5a"><path d="m44.654 99.082h-9.014a9.041 9.041 0 0 1 -6.576-2.85 8.9 8.9 0 0 1 -2.408-6.73 472.692 472.692 0 0 0 .019-61.4 8.9 8.9 0 0 1 2.41-6.726 9.045 9.045 0 0 1 6.575-2.849h8.975a9.045 9.045 0 0 1 6.575 2.849 8.9 8.9 0 0 1 2.41 6.726 472.519 472.519 0 0 0 .02 61.4 8.9 8.9 0 0 1 -2.408 6.73 9.045 9.045 0 0 1 -6.578 2.85zm-9-78.552a7 7 0 0 0 -6.989 7.444 474.8 474.8 0 0 1 -.019 61.659 7 7 0 0 0 6.988 7.449h9.015a7 7 0 0 0 6.988-7.449 474.625 474.625 0 0 1 -.02-61.659 7 7 0 0 0 -6.989-7.444z"/><path d="m20.573 119.178a20.575 20.575 0 0 1 -2.651-40.978l.256 1.983a18.575 18.575 0 1 0 20.968 18.417h2a20.6 20.6 0 0 1 -20.573 20.578z"/></g></g></svg>